<?xml version="1.0"?>
<svg xmlns="http://www.w3.org/2000/svg" xmlns:xlink="http://www.w3.org/1999/xlink" version="1.1" id="Capa_1" x="0px" y="0px" viewBox="0 0 60 60" style="enable-background:new 0 0 60 60;" xml:space="preserve" width="512px" height="512px" class=""><g><g>
	<path d="M60,30C60,13.458,46.542,0,30,0S0,13.458,0,30s13.458,30,30,30c3.683,0,7.211-0.671,10.473-1.89l-0.012,0.071l1.714-0.763   c0.139-0.062,0.274-0.132,0.412-0.196c0.226-0.105,0.451-0.211,0.674-0.321c0.234-0.116,0.465-0.235,0.696-0.357   c0.201-0.106,0.401-0.214,0.599-0.324c0.249-0.139,0.496-0.281,0.742-0.427c0.167-0.099,0.332-0.2,0.496-0.302   c0.271-0.168,0.54-0.34,0.806-0.517c0.126-0.084,0.251-0.17,0.375-0.256c0.177-0.122,0.358-0.238,0.533-0.363l0.423-0.305l0-0.012   C55.252,48.562,60,39.825,60,30z M44.771,46.407c0.48,1.879,1.031,4.336,1.136,6.618c-0.063,0.044-0.124,0.09-0.187,0.133   c-0.288,0.196-0.581,0.383-0.876,0.568c-0.237,0.149-0.476,0.293-0.717,0.435c-0.315,0.185-0.631,0.367-0.953,0.539   c-0.055,0.029-0.112,0.056-0.167,0.086c0.003-0.03,0.007-0.06,0.01-0.09C43.257,52.596,43.577,49.813,44.771,46.407z    M47.795,51.603c-0.282-2.666-0.981-5.317-1.439-7.035c-0.097-0.364-0.182-0.684-0.248-0.947l-0.201-0.806   C47.856,39.988,49,36.62,49,33c0-6.894-1.476-9.456-4.155-14.108c-1.077-1.87-2.417-4.197-3.947-7.33   c-0.242-0.496-0.838-0.703-1.337-0.46c-0.496,0.242-0.702,0.841-0.459,1.337c1.56,3.194,2.918,5.555,4.011,7.451   C45.701,24.385,47,26.642,47,33c0,8.822-7.626,16-17,16s-17-7.178-17-16c0-0.553-0.448-1-1-1s-1,0.447-1,1c0,9.925,8.523,18,19,18   c4.876,0,9.314-1.764,12.681-4.634c-1.091,3.318-1.414,6.032-1.652,8.1c-0.057,0.493-0.111,0.93-0.169,1.341   C37.519,57.219,33.849,58,30,58C14.561,58,2,45.439,2,30S14.561,2,30,2s28,12.561,28,28C58,38.687,54.023,46.463,47.795,51.603z" data-original="#000000" class="active-path" data-old_color="#000000" fill="#FFFFFF"/>
	<path d="M30,22c-5.514,0-10,4.486-10,10s4.486,10,10,10s10-4.486,10-10S35.514,22,30,22z M30,40c-4.411,0-8-3.589-8-8s3.589-8,8-8   s8,3.589,8,8S34.411,40,30,40z" data-original="#000000" class="active-path" data-old_color="#000000" fill="#FFFFFF"/>
	<path d="M30,28c-2.206,0-4,1.794-4,4s1.794,4,4,4s4-1.794,4-4S32.206,28,30,28z M30,34c-1.103,0-2-0.897-2-2s0.897-2,2-2   s2,0.897,2,2S31.103,34,30,34z" data-original="#000000" class="active-path" data-old_color="#000000" fill="#FFFFFF"/>
</g></g> </svg>
